<svg width="94" height="94" viewBox="0 0 94 94" fill="none" xmlns="http://www.w3.org/2000/svg">
<path d="M46.0625 2.41602C46.3847 1.54558 47.6153 1.54558 47.9375 2.41602L59.2471 32.9805C59.5509 33.8014 60.1986 34.4491 61.0195 34.7529L91.584 46.0625C92.4544 46.3847 92.4544 47.6153 91.584 47.9375L61.0195 59.2471C60.1986 59.5509 59.5509 60.1986 59.2471 61.0195L47.9375 91.584C47.6153 92.4544 46.3847 92.4544 46.0625 91.584L34.7529 61.0195C34.4491 60.1986 33.8014 59.5509 32.9805 59.2471L2.41602 47.9375C1.54558 47.6153 1.54558 46.3847 2.41602 46.0625L32.9805 34.7529C33.8014 34.4491 34.4491 33.8014 34.7529 32.9805L46.0625 2.41602Z" fill="#62BC4D" stroke="#62BC4D" stroke-width="2"/>
</svg>
